M48
; DRILL file {KiCad (6.0.9)} date Fri Oct 13 22:05:29 2023
; FORMAT={-:-/ absolute / inch / decimal}
; #@! TF.CreationDate,2023-10-13T22:05:29+03:00
; #@! TF.GenerationSoftware,Kicad,Pcbnew,(6.0.9)
; #@! TF.FileFunction,Plated,1,2,PTH
FMAT,2
INCH
; #@! TA.AperFunction,Plated,PTH,ViaDrill
T1C0.0157
; #@! TA.AperFunction,Plated,PTH,ComponentDrill
T2C0.0197
; #@! TA.AperFunction,Plated,PTH,ComponentDrill
T3C0.0295
; #@! TA.AperFunction,Plated,PTH,ComponentDrill
T4C0.0315
%
G90
G05
T1
X3.92Y-3.58
X4.07Y-3.67
X4.15Y-3.61
X4.32Y-3.57
X4.36Y-3.68
X4.49Y-3.77
X4.58Y-3.64
X4.61Y-3.7
X4.86Y-3.86
X4.87Y-3.36
X4.87Y-3.93
X4.88Y-3.58
X4.88Y-3.79
X4.91Y-3.73
X4.96Y-4.32
X4.9724Y-4.2224
X5.01Y-4.11
X5.0174Y-4.1774
X5.02Y-3.32
X5.02Y-3.39
X5.05Y-3.73
X5.05Y-3.84
X5.06Y-3.65
X5.07Y-3.78
X5.0909Y-4.3509
X5.12Y-3.51
X5.14Y-3.31
X5.14Y-3.83
X5.18Y-3.06
X5.18Y-4.33
X5.2057Y-3.9825
X5.22Y-3.53
X5.2862Y-4.3838
X5.3Y-3.61
X5.33Y-3.31
X5.33Y-3.55
X5.38Y-3.39
X5.43Y-3.89
X5.48Y-3.43
X5.5062Y-3.5362
X5.56Y-3.57
X5.58Y-3.11
X6.09Y-4.58
X6.13Y-4.4921
X6.49Y-3.56
X6.49Y-3.92
X6.56Y-3.78
X6.58Y-4.49
X6.59Y-4.11
T2
X3.8203Y-2.9286
X3.8597Y-2.9286
X4.205Y-2.9286
X4.2444Y-2.9286
X6.6286Y-3.2506
X6.6286Y-3.29
X6.6286Y-3.3294
X6.6514Y-2.9309
X6.6514Y-2.9703
X6.6514Y-3.0097
X6.6514Y-3.0491
X6.6528Y-3.5606
X6.6528Y-3.6
X6.6528Y-3.6394
X6.6614Y-3.8706
X6.6614Y-3.91
X6.6614Y-3.9494
X6.6628Y-4.1806
X6.6628Y-4.22
X6.6628Y-4.2594
X6.6628Y-4.4506
X6.6628Y-4.49
X6.6628Y-4.5294
T3
X6.0258Y-3.44
X6.0258Y-3.49
X6.0258Y-3.54
T4
X5.1925Y-2.95
X5.2713Y-2.95
X5.35Y-2.95
X5.4287Y-2.95
X5.5075Y-2.95
X5.5862Y-2.95
T0
M30
