%TF.GenerationSoftware,KiCad,Pcbnew,(6.0.9)*%
%TF.CreationDate,2023-10-13T22:04:35+03:00*%
%TF.ProjectId,ULV,554c562e-6b69-4636-9164-5f7063625858,rev?*%
%TF.SameCoordinates,Original*%
%TF.FileFunction,Legend,Bot*%
%TF.FilePolarity,Positive*%
%FSLAX46Y46*%
G04 Gerber Fmt 4.6, Leading zero omitted, Abs format (unit mm)*
G04 Created by KiCad (PCBNEW (6.0.9)) date 2023-10-13 22:04:35*
%MOMM*%
%LPD*%
G01*
G04 APERTURE LIST*
%ADD10C,0.150000*%
%ADD11C,0.120000*%
G04 APERTURE END LIST*
D10*
%TO.C,U1*%
X142493904Y-86738380D02*
X142493904Y-87547904D01*
X142446285Y-87643142D01*
X142398666Y-87690761D01*
X142303428Y-87738380D01*
X142112952Y-87738380D01*
X142017714Y-87690761D01*
X141970095Y-87643142D01*
X141922476Y-87547904D01*
X141922476Y-86738380D01*
X140922476Y-87738380D02*
X141493904Y-87738380D01*
X141208190Y-87738380D02*
X141208190Y-86738380D01*
X141303428Y-86881238D01*
X141398666Y-86976476D01*
X141493904Y-87024095D01*
%TO.C,J6*%
X143402380Y-74596666D02*
X144116666Y-74596666D01*
X144259523Y-74549047D01*
X144354761Y-74453809D01*
X144402380Y-74310952D01*
X144402380Y-74215714D01*
X143402380Y-75501428D02*
X143402380Y-75310952D01*
X143450000Y-75215714D01*
X143497619Y-75168095D01*
X143640476Y-75072857D01*
X143830952Y-75025238D01*
X144211904Y-75025238D01*
X144307142Y-75072857D01*
X144354761Y-75120476D01*
X144402380Y-75215714D01*
X144402380Y-75406190D01*
X144354761Y-75501428D01*
X144307142Y-75549047D01*
X144211904Y-75596666D01*
X143973809Y-75596666D01*
X143878571Y-75549047D01*
X143830952Y-75501428D01*
X143783333Y-75406190D01*
X143783333Y-75215714D01*
X143830952Y-75120476D01*
X143878571Y-75072857D01*
X143973809Y-75025238D01*
D11*
%TO.C,U1*%
X141732000Y-86446000D02*
X138807000Y-86446000D01*
X141732000Y-83226000D02*
X143232000Y-83226000D01*
X141732000Y-86446000D02*
X143232000Y-86446000D01*
X141732000Y-83226000D02*
X140232000Y-83226000D01*
%TO.C,J6*%
X142950000Y-75990000D02*
X142950000Y-74930000D01*
X140890000Y-75990000D02*
X140890000Y-73870000D01*
X141890000Y-75990000D02*
X142950000Y-75990000D01*
X140890000Y-73870000D02*
X130830000Y-73870000D01*
X130830000Y-75990000D02*
X130830000Y-73870000D01*
X140890000Y-75990000D02*
X130830000Y-75990000D01*
%TD*%
M02*
