%TF.GenerationSoftware,KiCad,Pcbnew,(6.0.9)*%
%TF.CreationDate,2023-10-13T22:04:35+03:00*%
%TF.ProjectId,ULV,554c562e-6b69-4636-9164-5f7063625858,rev?*%
%TF.SameCoordinates,Original*%
%TF.FileFunction,Legend,Top*%
%TF.FilePolarity,Positive*%
%FSLAX46Y46*%
G04 Gerber Fmt 4.6, Leading zero omitted, Abs format (unit mm)*
G04 Created by KiCad (PCBNEW (6.0.9)) date 2023-10-13 22:04:35*
%MOMM*%
%LPD*%
G01*
G04 APERTURE LIST*
%ADD10C,0.150000*%
%ADD11C,0.120000*%
G04 APERTURE END LIST*
D10*
%TO.C,J5*%
X104009380Y-75009333D02*
X104723666Y-75009333D01*
X104866523Y-75056952D01*
X104961761Y-75152190D01*
X105009380Y-75295047D01*
X105009380Y-75390285D01*
X104009380Y-74056952D02*
X104009380Y-74533142D01*
X104485571Y-74580761D01*
X104437952Y-74533142D01*
X104390333Y-74437904D01*
X104390333Y-74199809D01*
X104437952Y-74104571D01*
X104485571Y-74056952D01*
X104580809Y-74009333D01*
X104818904Y-74009333D01*
X104914142Y-74056952D01*
X104961761Y-74104571D01*
X105009380Y-74199809D01*
X105009380Y-74437904D01*
X104961761Y-74533142D01*
X104914142Y-74580761D01*
%TO.C,C13*%
X108458142Y-86525142D02*
X108410523Y-86572761D01*
X108267666Y-86620380D01*
X108172428Y-86620380D01*
X108029571Y-86572761D01*
X107934333Y-86477523D01*
X107886714Y-86382285D01*
X107839095Y-86191809D01*
X107839095Y-86048952D01*
X107886714Y-85858476D01*
X107934333Y-85763238D01*
X108029571Y-85668000D01*
X108172428Y-85620380D01*
X108267666Y-85620380D01*
X108410523Y-85668000D01*
X108458142Y-85715619D01*
X109410523Y-86620380D02*
X108839095Y-86620380D01*
X109124809Y-86620380D02*
X109124809Y-85620380D01*
X109029571Y-85763238D01*
X108934333Y-85858476D01*
X108839095Y-85906095D01*
X109743857Y-85620380D02*
X110362904Y-85620380D01*
X110029571Y-86001333D01*
X110172428Y-86001333D01*
X110267666Y-86048952D01*
X110315285Y-86096571D01*
X110362904Y-86191809D01*
X110362904Y-86429904D01*
X110315285Y-86525142D01*
X110267666Y-86572761D01*
X110172428Y-86620380D01*
X109886714Y-86620380D01*
X109791476Y-86572761D01*
X109743857Y-86525142D01*
%TO.C,C1*%
X97250333Y-91192142D02*
X97202714Y-91239761D01*
X97059857Y-91287380D01*
X96964619Y-91287380D01*
X96821761Y-91239761D01*
X96726523Y-91144523D01*
X96678904Y-91049285D01*
X96631285Y-90858809D01*
X96631285Y-90715952D01*
X96678904Y-90525476D01*
X96726523Y-90430238D01*
X96821761Y-90335000D01*
X96964619Y-90287380D01*
X97059857Y-90287380D01*
X97202714Y-90335000D01*
X97250333Y-90382619D01*
X98202714Y-91287380D02*
X97631285Y-91287380D01*
X97917000Y-91287380D02*
X97917000Y-90287380D01*
X97821761Y-90430238D01*
X97726523Y-90525476D01*
X97631285Y-90573095D01*
%TO.C,C10*%
X159750142Y-114418857D02*
X159797761Y-114466476D01*
X159845380Y-114609333D01*
X159845380Y-114704571D01*
X159797761Y-114847428D01*
X159702523Y-114942666D01*
X159607285Y-114990285D01*
X159416809Y-115037904D01*
X159273952Y-115037904D01*
X159083476Y-114990285D01*
X158988238Y-114942666D01*
X158893000Y-114847428D01*
X158845380Y-114704571D01*
X158845380Y-114609333D01*
X158893000Y-114466476D01*
X158940619Y-114418857D01*
X159845380Y-113466476D02*
X159845380Y-114037904D01*
X159845380Y-113752190D02*
X158845380Y-113752190D01*
X158988238Y-113847428D01*
X159083476Y-113942666D01*
X159131095Y-114037904D01*
X158845380Y-112847428D02*
X158845380Y-112752190D01*
X158893000Y-112656952D01*
X158940619Y-112609333D01*
X159035857Y-112561714D01*
X159226333Y-112514095D01*
X159464428Y-112514095D01*
X159654904Y-112561714D01*
X159750142Y-112609333D01*
X159797761Y-112656952D01*
X159845380Y-112752190D01*
X159845380Y-112847428D01*
X159797761Y-112942666D01*
X159750142Y-112990285D01*
X159654904Y-113037904D01*
X159464428Y-113085523D01*
X159226333Y-113085523D01*
X159035857Y-113037904D01*
X158940619Y-112990285D01*
X158893000Y-112942666D01*
X158845380Y-112847428D01*
%TO.C,C14*%
X119245142Y-101195142D02*
X119197523Y-101242761D01*
X119054666Y-101290380D01*
X118959428Y-101290380D01*
X118816571Y-101242761D01*
X118721333Y-101147523D01*
X118673714Y-101052285D01*
X118626095Y-100861809D01*
X118626095Y-100718952D01*
X118673714Y-100528476D01*
X118721333Y-100433238D01*
X118816571Y-100338000D01*
X118959428Y-100290380D01*
X119054666Y-100290380D01*
X119197523Y-100338000D01*
X119245142Y-100385619D01*
X120197523Y-101290380D02*
X119626095Y-101290380D01*
X119911809Y-101290380D02*
X119911809Y-100290380D01*
X119816571Y-100433238D01*
X119721333Y-100528476D01*
X119626095Y-100576095D01*
X121054666Y-100623714D02*
X121054666Y-101290380D01*
X120816571Y-100242761D02*
X120578476Y-100957047D01*
X121197523Y-100957047D01*
%TO.C,J8*%
X168576666Y-95516380D02*
X168576666Y-96230666D01*
X168529047Y-96373523D01*
X168433809Y-96468761D01*
X168290952Y-96516380D01*
X168195714Y-96516380D01*
X169195714Y-95944952D02*
X169100476Y-95897333D01*
X169052857Y-95849714D01*
X169005238Y-95754476D01*
X169005238Y-95706857D01*
X169052857Y-95611619D01*
X169100476Y-95564000D01*
X169195714Y-95516380D01*
X169386190Y-95516380D01*
X169481428Y-95564000D01*
X169529047Y-95611619D01*
X169576666Y-95706857D01*
X169576666Y-95754476D01*
X169529047Y-95849714D01*
X169481428Y-95897333D01*
X169386190Y-95944952D01*
X169195714Y-95944952D01*
X169100476Y-95992571D01*
X169052857Y-96040190D01*
X169005238Y-96135428D01*
X169005238Y-96325904D01*
X169052857Y-96421142D01*
X169100476Y-96468761D01*
X169195714Y-96516380D01*
X169386190Y-96516380D01*
X169481428Y-96468761D01*
X169529047Y-96421142D01*
X169576666Y-96325904D01*
X169576666Y-96135428D01*
X169529047Y-96040190D01*
X169481428Y-95992571D01*
X169386190Y-95944952D01*
%TO.C,J3*%
X168322666Y-71648380D02*
X168322666Y-72362666D01*
X168275047Y-72505523D01*
X168179809Y-72600761D01*
X168036952Y-72648380D01*
X167941714Y-72648380D01*
X168703619Y-71648380D02*
X169322666Y-71648380D01*
X168989333Y-72029333D01*
X169132190Y-72029333D01*
X169227428Y-72076952D01*
X169275047Y-72124571D01*
X169322666Y-72219809D01*
X169322666Y-72457904D01*
X169275047Y-72553142D01*
X169227428Y-72600761D01*
X169132190Y-72648380D01*
X168846476Y-72648380D01*
X168751238Y-72600761D01*
X168703619Y-72553142D01*
%TO.C,C11*%
X156194142Y-114418857D02*
X156241761Y-114466476D01*
X156289380Y-114609333D01*
X156289380Y-114704571D01*
X156241761Y-114847428D01*
X156146523Y-114942666D01*
X156051285Y-114990285D01*
X155860809Y-115037904D01*
X155717952Y-115037904D01*
X155527476Y-114990285D01*
X155432238Y-114942666D01*
X155337000Y-114847428D01*
X155289380Y-114704571D01*
X155289380Y-114609333D01*
X155337000Y-114466476D01*
X155384619Y-114418857D01*
X156289380Y-113466476D02*
X156289380Y-114037904D01*
X156289380Y-113752190D02*
X155289380Y-113752190D01*
X155432238Y-113847428D01*
X155527476Y-113942666D01*
X155575095Y-114037904D01*
X156289380Y-112514095D02*
X156289380Y-113085523D01*
X156289380Y-112799809D02*
X155289380Y-112799809D01*
X155432238Y-112895047D01*
X155527476Y-112990285D01*
X155575095Y-113085523D01*
%TO.C,U6*%
X124714095Y-107062380D02*
X124714095Y-107871904D01*
X124761714Y-107967142D01*
X124809333Y-108014761D01*
X124904571Y-108062380D01*
X125095047Y-108062380D01*
X125190285Y-108014761D01*
X125237904Y-107967142D01*
X125285523Y-107871904D01*
X125285523Y-107062380D01*
X126190285Y-107062380D02*
X125999809Y-107062380D01*
X125904571Y-107110000D01*
X125856952Y-107157619D01*
X125761714Y-107300476D01*
X125714095Y-107490952D01*
X125714095Y-107871904D01*
X125761714Y-107967142D01*
X125809333Y-108014761D01*
X125904571Y-108062380D01*
X126095047Y-108062380D01*
X126190285Y-108014761D01*
X126237904Y-107967142D01*
X126285523Y-107871904D01*
X126285523Y-107633809D01*
X126237904Y-107538571D01*
X126190285Y-107490952D01*
X126095047Y-107443333D01*
X125904571Y-107443333D01*
X125809333Y-107490952D01*
X125761714Y-107538571D01*
X125714095Y-107633809D01*
%TO.C,C3*%
X86447333Y-115575142D02*
X86399714Y-115622761D01*
X86256857Y-115670380D01*
X86161619Y-115670380D01*
X86018761Y-115622761D01*
X85923523Y-115527523D01*
X85875904Y-115432285D01*
X85828285Y-115241809D01*
X85828285Y-115098952D01*
X85875904Y-114908476D01*
X85923523Y-114813238D01*
X86018761Y-114718000D01*
X86161619Y-114670380D01*
X86256857Y-114670380D01*
X86399714Y-114718000D01*
X86447333Y-114765619D01*
X86780666Y-114670380D02*
X87399714Y-114670380D01*
X87066380Y-115051333D01*
X87209238Y-115051333D01*
X87304476Y-115098952D01*
X87352095Y-115146571D01*
X87399714Y-115241809D01*
X87399714Y-115479904D01*
X87352095Y-115575142D01*
X87304476Y-115622761D01*
X87209238Y-115670380D01*
X86923523Y-115670380D01*
X86828285Y-115622761D01*
X86780666Y-115575142D01*
%TO.C,U7*%
X125796380Y-113283904D02*
X126605904Y-113283904D01*
X126701142Y-113236285D01*
X126748761Y-113188666D01*
X126796380Y-113093428D01*
X126796380Y-112902952D01*
X126748761Y-112807714D01*
X126701142Y-112760095D01*
X126605904Y-112712476D01*
X125796380Y-112712476D01*
X125796380Y-112331523D02*
X125796380Y-111664857D01*
X126796380Y-112093428D01*
%TO.C,R1*%
X118197333Y-112974380D02*
X117864000Y-112498190D01*
X117625904Y-112974380D02*
X117625904Y-111974380D01*
X118006857Y-111974380D01*
X118102095Y-112022000D01*
X118149714Y-112069619D01*
X118197333Y-112164857D01*
X118197333Y-112307714D01*
X118149714Y-112402952D01*
X118102095Y-112450571D01*
X118006857Y-112498190D01*
X117625904Y-112498190D01*
X119149714Y-112974380D02*
X118578285Y-112974380D01*
X118864000Y-112974380D02*
X118864000Y-111974380D01*
X118768761Y-112117238D01*
X118673523Y-112212476D01*
X118578285Y-112260095D01*
%TO.C,C4*%
X80859333Y-111961142D02*
X80811714Y-112008761D01*
X80668857Y-112056380D01*
X80573619Y-112056380D01*
X80430761Y-112008761D01*
X80335523Y-111913523D01*
X80287904Y-111818285D01*
X80240285Y-111627809D01*
X80240285Y-111484952D01*
X80287904Y-111294476D01*
X80335523Y-111199238D01*
X80430761Y-111104000D01*
X80573619Y-111056380D01*
X80668857Y-111056380D01*
X80811714Y-111104000D01*
X80859333Y-111151619D01*
X81716476Y-111389714D02*
X81716476Y-112056380D01*
X81478380Y-111008761D02*
X81240285Y-111723047D01*
X81859333Y-111723047D01*
%TO.C,C2*%
X99790333Y-91126142D02*
X99742714Y-91173761D01*
X99599857Y-91221380D01*
X99504619Y-91221380D01*
X99361761Y-91173761D01*
X99266523Y-91078523D01*
X99218904Y-90983285D01*
X99171285Y-90792809D01*
X99171285Y-90649952D01*
X99218904Y-90459476D01*
X99266523Y-90364238D01*
X99361761Y-90269000D01*
X99504619Y-90221380D01*
X99599857Y-90221380D01*
X99742714Y-90269000D01*
X99790333Y-90316619D01*
X100171285Y-90316619D02*
X100218904Y-90269000D01*
X100314142Y-90221380D01*
X100552238Y-90221380D01*
X100647476Y-90269000D01*
X100695095Y-90316619D01*
X100742714Y-90411857D01*
X100742714Y-90507095D01*
X100695095Y-90649952D01*
X100123666Y-91221380D01*
X100742714Y-91221380D01*
%TO.C,J2*%
X168612666Y-103390380D02*
X168612666Y-104104666D01*
X168565047Y-104247523D01*
X168469809Y-104342761D01*
X168326952Y-104390380D01*
X168231714Y-104390380D01*
X169041238Y-103485619D02*
X169088857Y-103438000D01*
X169184095Y-103390380D01*
X169422190Y-103390380D01*
X169517428Y-103438000D01*
X169565047Y-103485619D01*
X169612666Y-103580857D01*
X169612666Y-103676095D01*
X169565047Y-103818952D01*
X168993619Y-104390380D01*
X169612666Y-104390380D01*
%TO.C,R2*%
X113117333Y-109926380D02*
X112784000Y-109450190D01*
X112545904Y-109926380D02*
X112545904Y-108926380D01*
X112926857Y-108926380D01*
X113022095Y-108974000D01*
X113069714Y-109021619D01*
X113117333Y-109116857D01*
X113117333Y-109259714D01*
X113069714Y-109354952D01*
X113022095Y-109402571D01*
X112926857Y-109450190D01*
X112545904Y-109450190D01*
X113498285Y-109021619D02*
X113545904Y-108974000D01*
X113641142Y-108926380D01*
X113879238Y-108926380D01*
X113974476Y-108974000D01*
X114022095Y-109021619D01*
X114069714Y-109116857D01*
X114069714Y-109212095D01*
X114022095Y-109354952D01*
X113450666Y-109926380D01*
X114069714Y-109926380D01*
%TO.C,Q2*%
X157163619Y-88741238D02*
X157116000Y-88836476D01*
X157020761Y-88931714D01*
X156877904Y-89074571D01*
X156830285Y-89169809D01*
X156830285Y-89265047D01*
X157068380Y-89217428D02*
X157020761Y-89312666D01*
X156925523Y-89407904D01*
X156735047Y-89455523D01*
X156401714Y-89455523D01*
X156211238Y-89407904D01*
X156116000Y-89312666D01*
X156068380Y-89217428D01*
X156068380Y-89026952D01*
X156116000Y-88931714D01*
X156211238Y-88836476D01*
X156401714Y-88788857D01*
X156735047Y-88788857D01*
X156925523Y-88836476D01*
X157020761Y-88931714D01*
X157068380Y-89026952D01*
X157068380Y-89217428D01*
X156163619Y-88407904D02*
X156116000Y-88360285D01*
X156068380Y-88265047D01*
X156068380Y-88026952D01*
X156116000Y-87931714D01*
X156163619Y-87884095D01*
X156258857Y-87836476D01*
X156354095Y-87836476D01*
X156496952Y-87884095D01*
X157068380Y-88455523D01*
X157068380Y-87836476D01*
%TO.C,C15*%
X118991142Y-90879142D02*
X118943523Y-90926761D01*
X118800666Y-90974380D01*
X118705428Y-90974380D01*
X118562571Y-90926761D01*
X118467333Y-90831523D01*
X118419714Y-90736285D01*
X118372095Y-90545809D01*
X118372095Y-90402952D01*
X118419714Y-90212476D01*
X118467333Y-90117238D01*
X118562571Y-90022000D01*
X118705428Y-89974380D01*
X118800666Y-89974380D01*
X118943523Y-90022000D01*
X118991142Y-90069619D01*
X119943523Y-90974380D02*
X119372095Y-90974380D01*
X119657809Y-90974380D02*
X119657809Y-89974380D01*
X119562571Y-90117238D01*
X119467333Y-90212476D01*
X119372095Y-90260095D01*
X120848285Y-89974380D02*
X120372095Y-89974380D01*
X120324476Y-90450571D01*
X120372095Y-90402952D01*
X120467333Y-90355333D01*
X120705428Y-90355333D01*
X120800666Y-90402952D01*
X120848285Y-90450571D01*
X120895904Y-90545809D01*
X120895904Y-90783904D01*
X120848285Y-90879142D01*
X120800666Y-90926761D01*
X120705428Y-90974380D01*
X120467333Y-90974380D01*
X120372095Y-90926761D01*
X120324476Y-90879142D01*
%TO.C,J4*%
X94238380Y-75009333D02*
X94952666Y-75009333D01*
X95095523Y-75056952D01*
X95190761Y-75152190D01*
X95238380Y-75295047D01*
X95238380Y-75390285D01*
X94571714Y-74104571D02*
X95238380Y-74104571D01*
X94190761Y-74342666D02*
X94905047Y-74580761D01*
X94905047Y-73961714D01*
%TO.C,C12*%
X155858142Y-117943142D02*
X155810523Y-117990761D01*
X155667666Y-118038380D01*
X155572428Y-118038380D01*
X155429571Y-117990761D01*
X155334333Y-117895523D01*
X155286714Y-117800285D01*
X155239095Y-117609809D01*
X155239095Y-117466952D01*
X155286714Y-117276476D01*
X155334333Y-117181238D01*
X155429571Y-117086000D01*
X155572428Y-117038380D01*
X155667666Y-117038380D01*
X155810523Y-117086000D01*
X155858142Y-117133619D01*
X156810523Y-118038380D02*
X156239095Y-118038380D01*
X156524809Y-118038380D02*
X156524809Y-117038380D01*
X156429571Y-117181238D01*
X156334333Y-117276476D01*
X156239095Y-117324095D01*
X157191476Y-117133619D02*
X157239095Y-117086000D01*
X157334333Y-117038380D01*
X157572428Y-117038380D01*
X157667666Y-117086000D01*
X157715285Y-117133619D01*
X157762904Y-117228857D01*
X157762904Y-117324095D01*
X157715285Y-117466952D01*
X157143857Y-118038380D01*
X157762904Y-118038380D01*
%TO.C,R11*%
X130929142Y-110306380D02*
X130595809Y-109830190D01*
X130357714Y-110306380D02*
X130357714Y-109306380D01*
X130738666Y-109306380D01*
X130833904Y-109354000D01*
X130881523Y-109401619D01*
X130929142Y-109496857D01*
X130929142Y-109639714D01*
X130881523Y-109734952D01*
X130833904Y-109782571D01*
X130738666Y-109830190D01*
X130357714Y-109830190D01*
X131881523Y-110306380D02*
X131310095Y-110306380D01*
X131595809Y-110306380D02*
X131595809Y-109306380D01*
X131500571Y-109449238D01*
X131405333Y-109544476D01*
X131310095Y-109592095D01*
X132833904Y-110306380D02*
X132262476Y-110306380D01*
X132548190Y-110306380D02*
X132548190Y-109306380D01*
X132452952Y-109449238D01*
X132357714Y-109544476D01*
X132262476Y-109592095D01*
%TO.C,R4*%
X150299333Y-92421380D02*
X149966000Y-91945190D01*
X149727904Y-92421380D02*
X149727904Y-91421380D01*
X150108857Y-91421380D01*
X150204095Y-91469000D01*
X150251714Y-91516619D01*
X150299333Y-91611857D01*
X150299333Y-91754714D01*
X150251714Y-91849952D01*
X150204095Y-91897571D01*
X150108857Y-91945190D01*
X149727904Y-91945190D01*
X151156476Y-91754714D02*
X151156476Y-92421380D01*
X150918380Y-91373761D02*
X150680285Y-92088047D01*
X151299333Y-92088047D01*
%TO.C,C6*%
X86447333Y-118721142D02*
X86399714Y-118768761D01*
X86256857Y-118816380D01*
X86161619Y-118816380D01*
X86018761Y-118768761D01*
X85923523Y-118673523D01*
X85875904Y-118578285D01*
X85828285Y-118387809D01*
X85828285Y-118244952D01*
X85875904Y-118054476D01*
X85923523Y-117959238D01*
X86018761Y-117864000D01*
X86161619Y-117816380D01*
X86256857Y-117816380D01*
X86399714Y-117864000D01*
X86447333Y-117911619D01*
X87304476Y-117816380D02*
X87114000Y-117816380D01*
X87018761Y-117864000D01*
X86971142Y-117911619D01*
X86875904Y-118054476D01*
X86828285Y-118244952D01*
X86828285Y-118625904D01*
X86875904Y-118721142D01*
X86923523Y-118768761D01*
X87018761Y-118816380D01*
X87209238Y-118816380D01*
X87304476Y-118768761D01*
X87352095Y-118721142D01*
X87399714Y-118625904D01*
X87399714Y-118387809D01*
X87352095Y-118292571D01*
X87304476Y-118244952D01*
X87209238Y-118197333D01*
X87018761Y-118197333D01*
X86923523Y-118244952D01*
X86875904Y-118292571D01*
X86828285Y-118387809D01*
%TO.C,R3*%
X155535333Y-82622380D02*
X155202000Y-82146190D01*
X154963904Y-82622380D02*
X154963904Y-81622380D01*
X155344857Y-81622380D01*
X155440095Y-81670000D01*
X155487714Y-81717619D01*
X155535333Y-81812857D01*
X155535333Y-81955714D01*
X155487714Y-82050952D01*
X155440095Y-82098571D01*
X155344857Y-82146190D01*
X154963904Y-82146190D01*
X155868666Y-81622380D02*
X156487714Y-81622380D01*
X156154380Y-82003333D01*
X156297238Y-82003333D01*
X156392476Y-82050952D01*
X156440095Y-82098571D01*
X156487714Y-82193809D01*
X156487714Y-82431904D01*
X156440095Y-82527142D01*
X156392476Y-82574761D01*
X156297238Y-82622380D01*
X156011523Y-82622380D01*
X155916285Y-82574761D01*
X155868666Y-82527142D01*
%TO.C,R7*%
X129119333Y-84652380D02*
X128786000Y-84176190D01*
X128547904Y-84652380D02*
X128547904Y-83652380D01*
X128928857Y-83652380D01*
X129024095Y-83700000D01*
X129071714Y-83747619D01*
X129119333Y-83842857D01*
X129119333Y-83985714D01*
X129071714Y-84080952D01*
X129024095Y-84128571D01*
X128928857Y-84176190D01*
X128547904Y-84176190D01*
X129452666Y-83652380D02*
X130119333Y-83652380D01*
X129690761Y-84652380D01*
%TO.C,U4*%
X152183095Y-109978380D02*
X152183095Y-110787904D01*
X152230714Y-110883142D01*
X152278333Y-110930761D01*
X152373571Y-110978380D01*
X152564047Y-110978380D01*
X152659285Y-110930761D01*
X152706904Y-110883142D01*
X152754523Y-110787904D01*
X152754523Y-109978380D01*
X153659285Y-110311714D02*
X153659285Y-110978380D01*
X153421190Y-109930761D02*
X153183095Y-110645047D01*
X153802142Y-110645047D01*
%TO.C,C8*%
X135723333Y-105669142D02*
X135675714Y-105716761D01*
X135532857Y-105764380D01*
X135437619Y-105764380D01*
X135294761Y-105716761D01*
X135199523Y-105621523D01*
X135151904Y-105526285D01*
X135104285Y-105335809D01*
X135104285Y-105192952D01*
X135151904Y-105002476D01*
X135199523Y-104907238D01*
X135294761Y-104812000D01*
X135437619Y-104764380D01*
X135532857Y-104764380D01*
X135675714Y-104812000D01*
X135723333Y-104859619D01*
X136294761Y-105192952D02*
X136199523Y-105145333D01*
X136151904Y-105097714D01*
X136104285Y-105002476D01*
X136104285Y-104954857D01*
X136151904Y-104859619D01*
X136199523Y-104812000D01*
X136294761Y-104764380D01*
X136485238Y-104764380D01*
X136580476Y-104812000D01*
X136628095Y-104859619D01*
X136675714Y-104954857D01*
X136675714Y-105002476D01*
X136628095Y-105097714D01*
X136580476Y-105145333D01*
X136485238Y-105192952D01*
X136294761Y-105192952D01*
X136199523Y-105240571D01*
X136151904Y-105288190D01*
X136104285Y-105383428D01*
X136104285Y-105573904D01*
X136151904Y-105669142D01*
X136199523Y-105716761D01*
X136294761Y-105764380D01*
X136485238Y-105764380D01*
X136580476Y-105716761D01*
X136628095Y-105669142D01*
X136675714Y-105573904D01*
X136675714Y-105383428D01*
X136628095Y-105288190D01*
X136580476Y-105240571D01*
X136485238Y-105192952D01*
%TO.C,J7*%
X168358666Y-87642380D02*
X168358666Y-88356666D01*
X168311047Y-88499523D01*
X168215809Y-88594761D01*
X168072952Y-88642380D01*
X167977714Y-88642380D01*
X168739619Y-87642380D02*
X169406285Y-87642380D01*
X168977714Y-88642380D01*
%TO.C,Y1*%
X121610190Y-96234190D02*
X122086380Y-96234190D01*
X121086380Y-96567523D02*
X121610190Y-96234190D01*
X121086380Y-95900857D01*
X122086380Y-95043714D02*
X122086380Y-95615142D01*
X122086380Y-95329428D02*
X121086380Y-95329428D01*
X121229238Y-95424666D01*
X121324476Y-95519904D01*
X121372095Y-95615142D01*
%TO.C,R5*%
X118562380Y-88304666D02*
X118086190Y-88638000D01*
X118562380Y-88876095D02*
X117562380Y-88876095D01*
X117562380Y-88495142D01*
X117610000Y-88399904D01*
X117657619Y-88352285D01*
X117752857Y-88304666D01*
X117895714Y-88304666D01*
X117990952Y-88352285D01*
X118038571Y-88399904D01*
X118086190Y-88495142D01*
X118086190Y-88876095D01*
X117562380Y-87399904D02*
X117562380Y-87876095D01*
X118038571Y-87923714D01*
X117990952Y-87876095D01*
X117943333Y-87780857D01*
X117943333Y-87542761D01*
X117990952Y-87447523D01*
X118038571Y-87399904D01*
X118133809Y-87352285D01*
X118371904Y-87352285D01*
X118467142Y-87399904D01*
X118514761Y-87447523D01*
X118562380Y-87542761D01*
X118562380Y-87780857D01*
X118514761Y-87876095D01*
X118467142Y-87923714D01*
%TO.C,U3*%
X103513095Y-85662380D02*
X103513095Y-86471904D01*
X103560714Y-86567142D01*
X103608333Y-86614761D01*
X103703571Y-86662380D01*
X103894047Y-86662380D01*
X103989285Y-86614761D01*
X104036904Y-86567142D01*
X104084523Y-86471904D01*
X104084523Y-85662380D01*
X104465476Y-85662380D02*
X105084523Y-85662380D01*
X104751190Y-86043333D01*
X104894047Y-86043333D01*
X104989285Y-86090952D01*
X105036904Y-86138571D01*
X105084523Y-86233809D01*
X105084523Y-86471904D01*
X105036904Y-86567142D01*
X104989285Y-86614761D01*
X104894047Y-86662380D01*
X104608333Y-86662380D01*
X104513095Y-86614761D01*
X104465476Y-86567142D01*
%TO.C,C5*%
X80859333Y-118819142D02*
X80811714Y-118866761D01*
X80668857Y-118914380D01*
X80573619Y-118914380D01*
X80430761Y-118866761D01*
X80335523Y-118771523D01*
X80287904Y-118676285D01*
X80240285Y-118485809D01*
X80240285Y-118342952D01*
X80287904Y-118152476D01*
X80335523Y-118057238D01*
X80430761Y-117962000D01*
X80573619Y-117914380D01*
X80668857Y-117914380D01*
X80811714Y-117962000D01*
X80859333Y-118009619D01*
X81764095Y-117914380D02*
X81287904Y-117914380D01*
X81240285Y-118390571D01*
X81287904Y-118342952D01*
X81383142Y-118295333D01*
X81621238Y-118295333D01*
X81716476Y-118342952D01*
X81764095Y-118390571D01*
X81811714Y-118485809D01*
X81811714Y-118723904D01*
X81764095Y-118819142D01*
X81716476Y-118866761D01*
X81621238Y-118914380D01*
X81383142Y-118914380D01*
X81287904Y-118866761D01*
X81240285Y-118819142D01*
%TO.C,C7*%
X122515333Y-85955142D02*
X122467714Y-86002761D01*
X122324857Y-86050380D01*
X122229619Y-86050380D01*
X122086761Y-86002761D01*
X121991523Y-85907523D01*
X121943904Y-85812285D01*
X121896285Y-85621809D01*
X121896285Y-85478952D01*
X121943904Y-85288476D01*
X121991523Y-85193238D01*
X122086761Y-85098000D01*
X122229619Y-85050380D01*
X122324857Y-85050380D01*
X122467714Y-85098000D01*
X122515333Y-85145619D01*
X122848666Y-85050380D02*
X123515333Y-85050380D01*
X123086761Y-86050380D01*
%TO.C,R10*%
X128643142Y-118688380D02*
X128309809Y-118212190D01*
X128071714Y-118688380D02*
X128071714Y-117688380D01*
X128452666Y-117688380D01*
X128547904Y-117736000D01*
X128595523Y-117783619D01*
X128643142Y-117878857D01*
X128643142Y-118021714D01*
X128595523Y-118116952D01*
X128547904Y-118164571D01*
X128452666Y-118212190D01*
X128071714Y-118212190D01*
X129595523Y-118688380D02*
X129024095Y-118688380D01*
X129309809Y-118688380D02*
X129309809Y-117688380D01*
X129214571Y-117831238D01*
X129119333Y-117926476D01*
X129024095Y-117974095D01*
X130214571Y-117688380D02*
X130309809Y-117688380D01*
X130405047Y-117736000D01*
X130452666Y-117783619D01*
X130500285Y-117878857D01*
X130547904Y-118069333D01*
X130547904Y-118307428D01*
X130500285Y-118497904D01*
X130452666Y-118593142D01*
X130405047Y-118640761D01*
X130309809Y-118688380D01*
X130214571Y-118688380D01*
X130119333Y-118640761D01*
X130071714Y-118593142D01*
X130024095Y-118497904D01*
X129976476Y-118307428D01*
X129976476Y-118069333D01*
X130024095Y-117878857D01*
X130071714Y-117783619D01*
X130119333Y-117736000D01*
X130214571Y-117688380D01*
%TO.C,U5*%
X131572095Y-85524380D02*
X131572095Y-86333904D01*
X131619714Y-86429142D01*
X131667333Y-86476761D01*
X131762571Y-86524380D01*
X131953047Y-86524380D01*
X132048285Y-86476761D01*
X132095904Y-86429142D01*
X132143523Y-86333904D01*
X132143523Y-85524380D01*
X133095904Y-85524380D02*
X132619714Y-85524380D01*
X132572095Y-86000571D01*
X132619714Y-85952952D01*
X132714952Y-85905333D01*
X132953047Y-85905333D01*
X133048285Y-85952952D01*
X133095904Y-86000571D01*
X133143523Y-86095809D01*
X133143523Y-86333904D01*
X133095904Y-86429142D01*
X133048285Y-86476761D01*
X132953047Y-86524380D01*
X132714952Y-86524380D01*
X132619714Y-86476761D01*
X132572095Y-86429142D01*
%TO.C,C9*%
X143343333Y-89355142D02*
X143295714Y-89402761D01*
X143152857Y-89450380D01*
X143057619Y-89450380D01*
X142914761Y-89402761D01*
X142819523Y-89307523D01*
X142771904Y-89212285D01*
X142724285Y-89021809D01*
X142724285Y-88878952D01*
X142771904Y-88688476D01*
X142819523Y-88593238D01*
X142914761Y-88498000D01*
X143057619Y-88450380D01*
X143152857Y-88450380D01*
X143295714Y-88498000D01*
X143343333Y-88545619D01*
X143819523Y-89450380D02*
X144010000Y-89450380D01*
X144105238Y-89402761D01*
X144152857Y-89355142D01*
X144248095Y-89212285D01*
X144295714Y-89021809D01*
X144295714Y-88640857D01*
X144248095Y-88545619D01*
X144200476Y-88498000D01*
X144105238Y-88450380D01*
X143914761Y-88450380D01*
X143819523Y-88498000D01*
X143771904Y-88545619D01*
X143724285Y-88640857D01*
X143724285Y-88878952D01*
X143771904Y-88974190D01*
X143819523Y-89021809D01*
X143914761Y-89069428D01*
X144105238Y-89069428D01*
X144200476Y-89021809D01*
X144248095Y-88974190D01*
X144295714Y-88878952D01*
%TO.C,J1*%
X168612666Y-110248380D02*
X168612666Y-110962666D01*
X168565047Y-111105523D01*
X168469809Y-111200761D01*
X168326952Y-111248380D01*
X168231714Y-111248380D01*
X169612666Y-111248380D02*
X169041238Y-111248380D01*
X169326952Y-111248380D02*
X169326952Y-110248380D01*
X169231714Y-110391238D01*
X169136476Y-110486476D01*
X169041238Y-110534095D01*
%TO.C,U2*%
X98044095Y-103736380D02*
X98044095Y-104545904D01*
X98091714Y-104641142D01*
X98139333Y-104688761D01*
X98234571Y-104736380D01*
X98425047Y-104736380D01*
X98520285Y-104688761D01*
X98567904Y-104641142D01*
X98615523Y-104545904D01*
X98615523Y-103736380D01*
X99044095Y-103831619D02*
X99091714Y-103784000D01*
X99186952Y-103736380D01*
X99425047Y-103736380D01*
X99520285Y-103784000D01*
X99567904Y-103831619D01*
X99615523Y-103926857D01*
X99615523Y-104022095D01*
X99567904Y-104164952D01*
X98996476Y-104736380D01*
X99615523Y-104736380D01*
%TO.C,Q1*%
X116231619Y-115157238D02*
X116184000Y-115252476D01*
X116088761Y-115347714D01*
X115945904Y-115490571D01*
X115898285Y-115585809D01*
X115898285Y-115681047D01*
X116136380Y-115633428D02*
X116088761Y-115728666D01*
X115993523Y-115823904D01*
X115803047Y-115871523D01*
X115469714Y-115871523D01*
X115279238Y-115823904D01*
X115184000Y-115728666D01*
X115136380Y-115633428D01*
X115136380Y-115442952D01*
X115184000Y-115347714D01*
X115279238Y-115252476D01*
X115469714Y-115204857D01*
X115803047Y-115204857D01*
X115993523Y-115252476D01*
X116088761Y-115347714D01*
X116136380Y-115442952D01*
X116136380Y-115633428D01*
X116136380Y-114252476D02*
X116136380Y-114823904D01*
X116136380Y-114538190D02*
X115136380Y-114538190D01*
X115279238Y-114633428D01*
X115374476Y-114728666D01*
X115422095Y-114823904D01*
%TO.C,J9*%
X168717666Y-80224380D02*
X168717666Y-80938666D01*
X168670047Y-81081523D01*
X168574809Y-81176761D01*
X168431952Y-81224380D01*
X168336714Y-81224380D01*
X169241476Y-81224380D02*
X169431952Y-81224380D01*
X169527190Y-81176761D01*
X169574809Y-81129142D01*
X169670047Y-80986285D01*
X169717666Y-80795809D01*
X169717666Y-80414857D01*
X169670047Y-80319619D01*
X169622428Y-80272000D01*
X169527190Y-80224380D01*
X169336714Y-80224380D01*
X169241476Y-80272000D01*
X169193857Y-80319619D01*
X169146238Y-80414857D01*
X169146238Y-80652952D01*
X169193857Y-80748190D01*
X169241476Y-80795809D01*
X169336714Y-80843428D01*
X169527190Y-80843428D01*
X169622428Y-80795809D01*
X169670047Y-80748190D01*
X169717666Y-80652952D01*
D11*
%TO.C,J5*%
X105997000Y-73701000D02*
X106807000Y-73701000D01*
X108252898Y-73866000D02*
X108617000Y-73866000D01*
X107307000Y-75486000D02*
X107307000Y-75071000D01*
X108617000Y-75486000D02*
X108617000Y-73866000D01*
X105997000Y-74386000D02*
X105997000Y-73701000D01*
X107307000Y-75486000D02*
X108617000Y-75486000D01*
%TO.C,C13*%
X108839748Y-88583000D02*
X109362252Y-88583000D01*
X108839748Y-87113000D02*
X109362252Y-87113000D01*
%TO.C,C1*%
X96682000Y-88033748D02*
X96682000Y-88556252D01*
X98152000Y-88033748D02*
X98152000Y-88556252D01*
%TO.C,C10*%
X161808000Y-114037252D02*
X161808000Y-113514748D01*
X160338000Y-114037252D02*
X160338000Y-113514748D01*
%TO.C,C14*%
X119626748Y-99795000D02*
X120149252Y-99795000D01*
X119626748Y-98325000D02*
X120149252Y-98325000D01*
%TO.C,J8*%
X168100000Y-98814000D02*
X168515000Y-98814000D01*
X168100000Y-101124000D02*
X169720000Y-101124000D01*
X169885000Y-97504000D02*
X169885000Y-98314000D01*
X168100000Y-98814000D02*
X168100000Y-101124000D01*
X169720000Y-99759898D02*
X169720000Y-99868102D01*
X169720000Y-100759898D02*
X169720000Y-101124000D01*
X169200000Y-97504000D02*
X169885000Y-97504000D01*
%TO.C,J3*%
X169466000Y-76891898D02*
X169466000Y-77000102D01*
X167846000Y-78256000D02*
X169466000Y-78256000D01*
X167846000Y-74946000D02*
X167846000Y-78256000D01*
X169466000Y-75891898D02*
X169466000Y-76000102D01*
X169466000Y-77891898D02*
X169466000Y-78256000D01*
X169631000Y-73636000D02*
X169631000Y-74446000D01*
X168946000Y-73636000D02*
X169631000Y-73636000D01*
X167846000Y-74946000D02*
X168261000Y-74946000D01*
%TO.C,C11*%
X158252000Y-114037252D02*
X158252000Y-113514748D01*
X156782000Y-114037252D02*
X156782000Y-113514748D01*
%TO.C,U6*%
X124116000Y-104050000D02*
X124116000Y-104650000D01*
X126536000Y-106770000D02*
X126836000Y-106770000D01*
X126536000Y-104050000D02*
X126836000Y-104050000D01*
X124116000Y-106770000D02*
X124116000Y-106170000D01*
X124416000Y-106770000D02*
X124116000Y-106770000D01*
X124416000Y-104050000D02*
X124116000Y-104050000D01*
X126836000Y-104050000D02*
X126836000Y-104650000D01*
%TO.C,C3*%
X86875252Y-114273000D02*
X86352748Y-114273000D01*
X86875252Y-112803000D02*
X86352748Y-112803000D01*
%TO.C,U7*%
X132404000Y-113082000D02*
X132404000Y-114132000D01*
X132404000Y-111962000D02*
X132404000Y-110912000D01*
X127184000Y-111962000D02*
X127184000Y-110912000D01*
%TO.C,R1*%
X118591064Y-114781000D02*
X118136936Y-114781000D01*
X118591064Y-113311000D02*
X118136936Y-113311000D01*
%TO.C,C4*%
X80764748Y-114019000D02*
X81287252Y-114019000D01*
X80764748Y-112549000D02*
X81287252Y-112549000D01*
%TO.C,C2*%
X99222000Y-87967748D02*
X99222000Y-88490252D01*
X100692000Y-87967748D02*
X100692000Y-88490252D01*
%TO.C,J2*%
X169236000Y-105378000D02*
X169921000Y-105378000D01*
X168136000Y-106688000D02*
X168551000Y-106688000D01*
X169756000Y-107633898D02*
X169756000Y-107742102D01*
X168136000Y-108998000D02*
X169756000Y-108998000D01*
X169756000Y-108633898D02*
X169756000Y-108998000D01*
X168136000Y-106688000D02*
X168136000Y-108998000D01*
X169921000Y-105378000D02*
X169921000Y-106188000D01*
%TO.C,R2*%
X113511064Y-110517000D02*
X113056936Y-110517000D01*
X113511064Y-111987000D02*
X113056936Y-111987000D01*
%TO.C,Q2*%
X151206000Y-86846000D02*
X151206000Y-90446000D01*
X155656001Y-88646000D02*
G75*
G03*
X151217522Y-86807522I-2600001J0D01*
G01*
X151217522Y-90484478D02*
G75*
G03*
X155656000Y-88646000I1838478J1838478D01*
G01*
%TO.C,C15*%
X119626748Y-91467000D02*
X120149252Y-91467000D01*
X119626748Y-92937000D02*
X120149252Y-92937000D01*
%TO.C,J4*%
X96226000Y-73701000D02*
X97036000Y-73701000D01*
X97536000Y-75486000D02*
X98846000Y-75486000D01*
X98846000Y-75486000D02*
X98846000Y-73866000D01*
X98481898Y-73866000D02*
X98846000Y-73866000D01*
X97536000Y-75486000D02*
X97536000Y-75071000D01*
X96226000Y-74386000D02*
X96226000Y-73701000D01*
%TO.C,C12*%
X152683748Y-118067000D02*
X153206252Y-118067000D01*
X152683748Y-116597000D02*
X153206252Y-116597000D01*
%TO.C,R11*%
X131799064Y-107469000D02*
X131344936Y-107469000D01*
X131799064Y-108939000D02*
X131344936Y-108939000D01*
%TO.C,R4*%
X153643064Y-91721000D02*
X153188936Y-91721000D01*
X153643064Y-93191000D02*
X153188936Y-93191000D01*
%TO.C,C6*%
X86875252Y-119407000D02*
X86352748Y-119407000D01*
X86875252Y-120877000D02*
X86352748Y-120877000D01*
%TO.C,R3*%
X155474936Y-83085000D02*
X155929064Y-83085000D01*
X155474936Y-84555000D02*
X155929064Y-84555000D01*
%TO.C,R7*%
X129513064Y-83285000D02*
X129058936Y-83285000D01*
X129513064Y-81815000D02*
X129058936Y-81815000D01*
D10*
%TO.C,U4*%
X154545000Y-115376000D02*
X154545000Y-114976000D01*
X151345000Y-115376000D02*
X151345000Y-114976000D01*
X154545000Y-112176000D02*
X154145000Y-112176000D01*
X151345000Y-115376000D02*
X151745000Y-115376000D01*
X154545000Y-115376000D02*
X154145000Y-115376000D01*
X151345000Y-112176000D02*
X151745000Y-112176000D01*
X154545000Y-112176000D02*
X154545000Y-112576000D01*
D11*
%TO.C,C8*%
X136151252Y-104367000D02*
X135628748Y-104367000D01*
X136151252Y-102897000D02*
X135628748Y-102897000D01*
%TO.C,J7*%
X167882000Y-93250000D02*
X169502000Y-93250000D01*
X169502000Y-91885898D02*
X169502000Y-91994102D01*
X167882000Y-90940000D02*
X167882000Y-93250000D01*
X167882000Y-90940000D02*
X168297000Y-90940000D01*
X169667000Y-89630000D02*
X169667000Y-90440000D01*
X169502000Y-92885898D02*
X169502000Y-93250000D01*
X168982000Y-89630000D02*
X169667000Y-89630000D01*
%TO.C,Y1*%
X118759000Y-95083000D02*
X118759000Y-96433000D01*
X120509000Y-95083000D02*
X120509000Y-96433000D01*
%TO.C,R5*%
X120623000Y-87910936D02*
X120623000Y-88365064D01*
X119153000Y-87910936D02*
X119153000Y-88365064D01*
%TO.C,U3*%
X104275000Y-90170000D02*
X103475000Y-90170000D01*
X104275000Y-90170000D02*
X105075000Y-90170000D01*
X104275000Y-87050000D02*
X105075000Y-87050000D01*
X104275000Y-87050000D02*
X102475000Y-87050000D01*
%TO.C,C5*%
X80764748Y-120877000D02*
X81287252Y-120877000D01*
X80764748Y-119407000D02*
X81287252Y-119407000D01*
%TO.C,C7*%
X123925000Y-88399252D02*
X123925000Y-87876748D01*
X122455000Y-88399252D02*
X122455000Y-87876748D01*
%TO.C,R10*%
X129513064Y-117321000D02*
X129058936Y-117321000D01*
X129513064Y-115851000D02*
X129058936Y-115851000D01*
%TO.C,U5*%
X128174000Y-98582000D02*
X127224000Y-98582000D01*
X128174000Y-88362000D02*
X127224000Y-88362000D01*
X136494000Y-88362000D02*
X137444000Y-88362000D01*
X136494000Y-98582000D02*
X137444000Y-98582000D01*
X127224000Y-89312000D02*
X125884000Y-89312000D01*
X127224000Y-88362000D02*
X127224000Y-89312000D01*
X137444000Y-98582000D02*
X137444000Y-97632000D01*
X137444000Y-88362000D02*
X137444000Y-89312000D01*
X127224000Y-98582000D02*
X127224000Y-97632000D01*
%TO.C,C9*%
X143248748Y-89943000D02*
X143771252Y-89943000D01*
X143248748Y-91413000D02*
X143771252Y-91413000D01*
%TO.C,J1*%
X168136000Y-115856000D02*
X169756000Y-115856000D01*
X169756000Y-114491898D02*
X169756000Y-114600102D01*
X168136000Y-113546000D02*
X168551000Y-113546000D01*
X168136000Y-113546000D02*
X168136000Y-115856000D01*
X169921000Y-112236000D02*
X169921000Y-113046000D01*
X169236000Y-112236000D02*
X169921000Y-112236000D01*
X169756000Y-115491898D02*
X169756000Y-115856000D01*
%TO.C,U2*%
X90696000Y-105174000D02*
X90696000Y-106784000D01*
X106806000Y-121394000D02*
X90806000Y-121394000D01*
X106806000Y-105174000D02*
X90696000Y-105174000D01*
%TO.C,Q1*%
X114844000Y-115062000D02*
X114844000Y-113387000D01*
X111724000Y-115062000D02*
X111724000Y-115712000D01*
X114844000Y-115062000D02*
X114844000Y-115712000D01*
X111724000Y-115062000D02*
X111724000Y-114412000D01*
%TO.C,J9*%
X167846000Y-82120102D02*
X167846000Y-81756000D01*
X168366000Y-85376000D02*
X167681000Y-85376000D01*
X169466000Y-81756000D02*
X167846000Y-81756000D01*
X169466000Y-84066000D02*
X169466000Y-81756000D01*
X167846000Y-83120102D02*
X167846000Y-83011898D01*
X169466000Y-84066000D02*
X169051000Y-84066000D01*
X167681000Y-85376000D02*
X167681000Y-84566000D01*
%TD*%
M02*
